<svg xmlns="http://www.w3.org/2000/svg" viewBox="0 0 1440 320"><path fill="#f3f4f5" fill-opacity="0.75" d="M0,64L8,64C16,64,32,64,48,69.3C64,75,80,85,96,96C112,107,128,117,144,122.7C160,128,176,128,192,117.3C208,107,224,85,240,96C256,107,272,149,288,154.7C304,160,320,128,336,117.3C352,107,368,117,384,101.3C400,85,416,43,432,53.3C448,64,464,128,480,144C496,160,512,128,528,133.3C544,139,560,181,576,165.3C592,149,608,75,624,58.7C640,43,656,85,672,90.7C688,96,704,64,720,58.7C736,53,752,75,768,117.3C784,160,800,224,816,256C832,288,848,288,864,261.3C880,235,896,181,912,170.7C928,160,944,192,960,176C976,160,992,96,1008,112C1024,128,1040,224,1056,266.7C1072,309,1088,299,1104,256C1120,213,1136,139,1152,112C1168,85,1184,107,1200,112C1216,117,1232,107,1248,90.7C1264,75,1280,53,1296,58.7C1312,64,1328,96,1344,122.7C1360,149,1376,171,1392,154.7C1408,139,1424,85,1432,58.7L1440,32L1440,320L1432,320C1424,320,1408,320,1392,320C1376,320,1360,320,1344,320C1328,320,1312,320,1296,320C1280,320,1264,320,1248,320C1232,320,1216,320,1200,320C1184,320,1168,320,1152,320C1136,320,1120,320,1104,320C1088,320,1072,320,1056,320C1040,320,1024,320,1008,320C992,320,976,320,960,320C944,320,928,320,912,320C896,320,880,320,864,320C848,320,832,320,816,320C800,320,784,320,768,320C752,320,736,320,720,320C704,320,688,320,672,320C656,320,640,320,624,320C608,320,592,320,576,320C560,320,544,320,528,320C512,320,496,320,480,320C464,320,448,320,432,320C416,320,400,320,384,320C368,320,352,320,336,320C320,320,304,320,288,320C272,320,256,320,240,320C224,320,208,320,192,320C176,320,160,320,144,320C128,320,112,320,96,320C80,320,64,320,48,320C32,320,16,320,8,320L0,320Z" style="--darkreader-inline-fill: #006eb8;" data-darkreader-inline-fill=""></path></svg>